<svg width="76" height="8" viewBox="0 0 76 8" fill="none" xmlns="http://www.w3.org/2000/svg">
<path d="M2.05078 6.48047C1.65234 5.94141 1.25391 5.23438 0.855469 4.35938L0.09375 2.71875C0.0546875 2.63281 0.03125 2.53906 0.0234375 2.4375C0.0078125 2.21875 0.0742188 2.03125 0.222656 1.875C0.371094 1.71875 0.566406 1.64062 0.808594 1.64062C1.07422 1.64062 1.26953 1.69531 1.39453 1.80469C1.52734 1.90625 1.63281 2.03906 1.71094 2.20312L2.26172 3.5625C2.40234 3.88281 2.53906 4.1875 2.67188 4.47656C2.8125 4.75781 2.96875 5.01562 3.14062 5.25C3.32031 5.48438 3.51953 5.60938 3.73828 5.625C3.94922 5.60938 4.14844 5.48438 4.33594 5.25C4.5 5.01562 4.64844 4.75781 4.78125 4.47656C4.92188 4.1875 5.0625 3.88281 5.20312 3.5625L5.75391 2.20312C5.83203 2.03906 5.93359 1.90625 6.05859 1.80469C6.19141 1.69531 6.39062 1.64062 6.65625 1.64062C6.89844 1.64062 7.09375 1.71875 7.24219 1.875C7.39062 2.03125 7.45703 2.21875 7.44141 2.4375C7.43359 2.53906 7.41016 2.63281 7.37109 2.71875L6.60938 4.35938C6.21094 5.23438 5.8125 5.94141 5.41406 6.48047C5.03125 7.01172 4.47266 7.28125 3.73828 7.28906C2.99609 7.28125 2.43359 7.01172 2.05078 6.48047ZM15.293 6.48047V3.65625C15.293 3.46094 15.1914 3.35938 14.9883 3.35156H10.8867C10.7383 3.35938 10.6094 3.42578 10.5 3.55078C10.3906 3.66797 10.3086 3.80859 10.2539 3.97266C10.207 4.12891 10.1836 4.28906 10.1836 4.45312C10.1836 4.60938 10.207 4.76953 10.2539 4.93359C10.3086 5.08984 10.3906 5.23047 10.5 5.35547C10.6094 5.47266 10.7383 5.53125 10.8867 5.53125H13.8867C14.1055 5.53125 14.2891 5.60938 14.4375 5.76562C14.5938 5.91406 14.6719 6.09766 14.6719 6.31641C14.6719 6.53516 14.5938 6.71875 14.4375 6.86719C14.2891 7.02344 14.1055 7.10156 13.8867 7.10156H10.9336C10.3867 7.09375 9.93359 6.94141 9.57422 6.64453C9.22266 6.33984 8.96875 6 8.8125 5.625C8.66406 5.24219 8.58984 4.84766 8.58984 4.44141C8.58984 4.05078 8.66797 3.66797 8.82422 3.29297C8.98047 2.91016 9.23438 2.57031 9.58594 2.27344C9.9375 1.96875 10.457 1.80469 11.1445 1.78125H16.0664C16.2852 1.78125 16.4727 1.85547 16.6289 2.00391C16.7852 2.14453 16.8672 2.32422 16.875 2.54297V6.48047C16.875 6.69922 16.793 6.88281 16.6289 7.03125C16.4727 7.17188 16.2852 7.24219 16.0664 7.24219C15.5977 7.20312 15.3398 6.94922 15.293 6.48047ZM22.125 7.30078C21.7188 7.30078 21.3164 7.25391 20.918 7.16016C20.5273 7.06641 20.1523 6.92969 19.793 6.75C19.4336 6.5625 19.1172 6.31641 18.8438 6.01172C18.5703 5.70703 18.4219 5.34375 18.3984 4.92188V4.42969V2.42578C18.3984 2.20703 18.4766 2.02734 18.6328 1.88672C18.7969 1.73828 18.9883 1.66406 19.207 1.66406C19.6758 1.70312 19.9297 1.95703 19.9688 2.42578V2.94141V4.55859C19.9844 4.80078 20.0742 5.00391 20.2383 5.16797C20.4102 5.32422 20.5977 5.44922 20.8008 5.54297C21.0117 5.63672 21.2266 5.70703 21.4453 5.75391C21.6719 5.80078 21.8984 5.82422 22.125 5.82422C22.3516 5.82422 22.5742 5.80078 22.793 5.75391C23.0195 5.70703 23.2344 5.63672 23.4375 5.54297C23.6484 5.44922 23.8359 5.32422 24 5.16797C24.1719 5.00391 24.2656 4.80078 24.2812 4.55859V2.94141V2.42578C24.2812 2.20703 24.3594 2.02734 24.5156 1.88672C24.6797 1.73828 24.8711 1.66406 25.0898 1.66406C25.5586 1.70312 25.8164 1.95703 25.8633 2.42578V4.42969V4.92188C25.8398 5.34375 25.6875 5.70703 25.4062 6.01172C25.1328 6.31641 24.8164 6.5625 24.457 6.75C24.0977 6.92969 23.7188 7.06641 23.3203 7.16016C22.9297 7.25391 22.5312 7.30078 22.125 7.30078ZM28.1719 0C28.3828 0.0078125 28.5625 0.0859375 28.7109 0.234375C28.8594 0.375 28.9375 0.550781 28.9453 0.761719V6.50391C28.8984 6.97266 28.6406 7.22656 28.1719 7.26562C27.9531 7.26562 27.7617 7.19531 27.5977 7.05469C27.4414 6.90625 27.3633 6.72266 27.3633 6.50391V0.761719C27.3711 0.542969 27.4531 0.363281 27.6094 0.222656C27.7656 0.0742188 27.9531 0 28.1719 0ZM32.9766 0C33.1953 0 33.3828 0.0742188 33.5391 0.222656C33.6953 0.363281 33.7773 0.542969 33.7852 0.761719V1.78125H37.7695C37.9883 1.78125 38.1758 1.85547 38.332 2.00391C38.4805 2.16016 38.5547 2.34766 38.5547 2.56641C38.5547 2.78516 38.4766 2.97266 38.3203 3.12891C38.1719 3.27734 37.9883 3.35156 37.7695 3.35156H33.7852V3.58594C33.7773 3.90625 33.7969 4.20312 33.8438 4.47656C33.8984 4.74219 34.0234 4.98047 34.2188 5.19141C34.4141 5.40234 34.6602 5.51562 34.957 5.53125H37.8164C38.0352 5.53906 38.2148 5.62109 38.3555 5.77734C38.5039 5.93359 38.5781 6.12109 38.5781 6.33984C38.5703 6.55078 38.4922 6.73047 38.3438 6.87891C38.2031 7.01953 38.0273 7.09375 37.8164 7.10156H34.5586C34.0117 7.07031 33.5586 6.88672 33.1992 6.55078C32.8477 6.20703 32.5938 5.78906 32.4375 5.29688C32.2891 4.80469 32.2109 4.28125 32.2031 3.72656V3.35156H30.8555C30.6367 3.35156 30.4531 3.27344 30.3047 3.11719C30.1484 2.96875 30.0703 2.78516 30.0703 2.56641C30.0703 2.34766 30.1445 2.16406 30.293 2.01562C30.4492 1.85938 30.6367 1.78125 30.8555 1.78125H32.2031V0.761719C32.2109 0.550781 32.2891 0.375 32.4375 0.234375C32.5859 0.0859375 32.7656 0.0078125 32.9766 0ZM47.5195 4.00781C47.668 4.32031 47.7422 4.63672 47.7422 4.95703C47.7422 5.26953 47.6641 5.58203 47.5078 5.89453C47.3516 6.19922 47.0977 6.47266 46.7461 6.71484C46.3945 6.94922 45.9453 7.06641 45.3984 7.06641H45.3281C45.2812 7.07422 45.2344 7.07812 45.1875 7.07812H40.4766C40.2656 7.07031 40.0859 6.99609 39.9375 6.85547C39.7969 6.70703 39.7227 6.52734 39.7148 6.31641V0.949219C39.7227 0.738281 39.7969 0.5625 39.9375 0.421875C40.0859 0.273438 40.2656 0.195312 40.4766 0.1875H44.5078C44.5547 0.1875 44.6016 0.191406 44.6484 0.199219H44.7188C45.2656 0.214844 45.7148 0.339844 46.0664 0.574219C46.418 0.808594 46.6719 1.07812 46.8281 1.38281C46.9844 1.67969 47.0625 1.98047 47.0625 2.28516C47.0625 2.59766 46.9883 2.90234 46.8398 3.19922C46.832 3.21484 46.8242 3.22656 46.8164 3.23438C47.1367 3.46094 47.3711 3.71875 47.5195 4.00781ZM45.4688 5.50781C45.6172 5.51562 45.7383 5.48828 45.832 5.42578C45.9336 5.36328 46.0078 5.29297 46.0547 5.21484C46.1016 5.12891 46.125 5.04297 46.125 4.95703C46.125 4.90234 46.1016 4.82812 46.0547 4.73438C46.0078 4.63281 45.9336 4.55078 45.832 4.48828C45.7383 4.42578 45.6172 4.39062 45.4688 4.38281H44.7188H41.2969V5.19141C41.2969 5.40234 41.4062 5.50781 41.625 5.50781H41.7188H45.4688ZM45.1641 2.70703C45.2578 2.65234 45.3281 2.58984 45.375 2.51953C45.4219 2.44141 45.4453 2.36328 45.4453 2.28516C45.4453 2.20703 45.4219 2.13281 45.375 2.0625C45.3281 1.98438 45.2539 1.91797 45.1523 1.86328C45.0586 1.80078 44.9375 1.76562 44.7891 1.75781H41.625C41.4062 1.75781 41.2969 1.86328 41.2969 2.07422V2.8125H44.7891C44.9375 2.80469 45.0625 2.76953 45.1641 2.70703ZM55.5 6.48047V3.65625C55.5 3.46094 55.3984 3.35938 55.1953 3.35156H51.0938C50.9453 3.35938 50.8164 3.42578 50.707 3.55078C50.5977 3.66797 50.5156 3.80859 50.4609 3.97266C50.4141 4.12891 50.3906 4.28906 50.3906 4.45312C50.3906 4.60938 50.4141 4.76953 50.4609 4.93359C50.5156 5.08984 50.5977 5.23047 50.707 5.35547C50.8164 5.47266 50.9453 5.53125 51.0938 5.53125H54.0938C54.3125 5.53125 54.4961 5.60938 54.6445 5.76562C54.8008 5.91406 54.8789 6.09766 54.8789 6.31641C54.8789 6.53516 54.8008 6.71875 54.6445 6.86719C54.4961 7.02344 54.3125 7.10156 54.0938 7.10156H51.1406C50.5938 7.09375 50.1406 6.94141 49.7812 6.64453C49.4297 6.33984 49.1758 6 49.0195 5.625C48.8711 5.24219 48.7969 4.84766 48.7969 4.44141C48.7969 4.05078 48.875 3.66797 49.0312 3.29297C49.1875 2.91016 49.4414 2.57031 49.793 2.27344C50.1445 1.96875 50.6641 1.80469 51.3516 1.78125H56.2734C56.4922 1.78125 56.6797 1.85547 56.8359 2.00391C56.9922 2.14453 57.0742 2.32422 57.082 2.54297V6.48047C57.082 6.69922 57 6.88281 56.8359 7.03125C56.6797 7.17188 56.4922 7.24219 56.2734 7.24219C55.8047 7.20312 55.5469 6.94922 55.5 6.48047ZM62.332 1.60547C62.7383 1.60547 63.1367 1.65234 63.5273 1.74609C63.9258 1.83984 64.3047 1.98047 64.6641 2.16797C65.0234 2.34766 65.3398 2.58984 65.6133 2.89453C65.8945 3.19922 66.0469 3.5625 66.0703 3.98438V4.47656V6.48047C66.0234 6.94922 65.7656 7.20312 65.2969 7.24219C65.0781 7.24219 64.8867 7.17188 64.7227 7.03125C64.5664 6.88281 64.4883 6.69922 64.4883 6.48047V5.96484V4.34766C64.4727 4.10547 64.3789 3.90625 64.207 3.75C64.043 3.58594 63.8555 3.45703 63.6445 3.36328C63.4414 3.26953 63.2266 3.19922 63 3.15234C62.7812 3.10547 62.5586 3.08203 62.332 3.08203C62.1055 3.08203 61.8789 3.10547 61.6523 3.15234C61.4336 3.19922 61.2188 3.26953 61.0078 3.36328C60.8047 3.45703 60.6172 3.58594 60.4453 3.75C60.2812 3.90625 60.1914 4.10547 60.1758 4.34766V5.96484V6.48047C60.1367 6.94922 59.8828 7.20312 59.4141 7.24219C59.1953 7.24219 59.0039 7.17188 58.8398 7.03125C58.6836 6.88281 58.6055 6.69922 58.6055 6.48047V4.47656V3.98438C58.6289 3.5625 58.7773 3.19922 59.0508 2.89453C59.3242 2.58984 59.6406 2.34766 60 2.16797C60.3594 1.98047 60.7344 1.83984 61.125 1.74609C61.5234 1.65234 61.9258 1.60547 62.332 1.60547ZM68.3672 0C68.5781 0.0078125 68.7578 0.0859375 68.9062 0.234375C69.0547 0.375 69.1328 0.550781 69.1406 0.761719V6.50391C69.0938 6.97266 68.8359 7.22656 68.3672 7.26562C68.1484 7.26562 67.957 7.19531 67.793 7.05469C67.6367 6.90625 67.5586 6.72266 67.5586 6.50391V0.761719C67.5664 0.542969 67.6484 0.363281 67.8047 0.222656C67.9609 0.0742188 68.1484 0 68.3672 0ZM69.8555 3.26953C70.082 2.90234 70.5156 2.63281 71.1562 2.46094L74.168 1.65234C74.3789 1.58984 74.5781 1.60938 74.7656 1.71094C74.9609 1.80469 75.0898 1.95703 75.1523 2.16797C75.2227 2.37109 75.207 2.57031 75.1055 2.76562C75.0117 2.95312 74.8594 3.08203 74.6484 3.15234L71.4375 3.98438C71.2109 4.07031 71.1016 4.21875 71.1094 4.42969C71.1016 4.64062 71.2109 4.78906 71.4375 4.875L74.6484 5.70703C74.8594 5.77734 75.0117 5.91016 75.1055 6.10547C75.207 6.29297 75.2227 6.48828 75.1523 6.69141C75.0898 6.90234 74.9609 7.05469 74.7656 7.14844C74.5781 7.25 74.3789 7.26953 74.168 7.20703L71.1562 6.39844C70.5078 6.21875 70.0703 5.94531 69.8438 5.57812C69.625 5.21094 69.5156 4.82812 69.5156 4.42969C69.5156 4.03125 69.6289 3.64453 69.8555 3.26953Z" fill="#155B30"/>
</svg>
